HIERARCHY
ROOT Hips
{
	OFFSET 0.00000 0.00000 0.00000
	CHANNELS 6 Xposition Yposition Zposition Yrotation Zrotation Xrotation 
	JOINT Lumbar
	{
		OFFSET 0 0 0
		CHANNELS 3 Zrotation Xrotation Yrotation
		JOINT Neck
		{
			OFFSET 0.00 0.2701 0.00
			CHANNELS 3 Zrotation Xrotation Yrotation
			End Site
			{
				OFFSET 0.00 0.1379 0.00
			}
		}
		JOINT RightShoulder
		{
			OFFSET 0.0119 0.2289 0.1181
			CHANNELS 3 Zrotation Xrotation Yrotation
			JOINT RightElbow
			{
				OFFSET 0.00 -0.1475 0.00
				CHANNELS 2 Zrotation Yrotation
				JOINT RightWrist
				{
					OFFSET 0.00 -0.1605 0.00
					CHANNELS 2 Zrotation Xrotation
					End Site
					{
						OFFSET 0.0040 -0.1068 0.0006
					}
				}
			}
		}
		JOINT LeftShoulder
		{
			OFFSET 0.0119 0.2289 -0.1181
			CHANNELS 3 Zrotation Xrotation Yrotation
			JOINT LeftElbow
			{
				OFFSET 0.00 -0.1475 0.00
				CHANNELS 2 Zrotation Yrotation
				JOINT LeftWrist
				{
					OFFSET 0.00 -0.1605 0.00
					CHANNELS 2 Zrotation Xrotation
					End Site
					{
						OFFSET 0.0040 -0.1068 -0.0006
					}
				}
			}
		}
	}
	JOINT RightHip
	{
		OFFSET 0.0316 -0.0424 0.0458
		CHANNELS 3 Zrotation Xrotation Yrotation
		JOINT RightKnee
		{
			OFFSET 0.00 -0.2438 0.00
			CHANNELS 1 Zrotation
			JOINT RightAnkle
			{
				OFFSET 0.00 -0.2449 0.00
				CHANNELS 3 Zrotation Xrotation Yrotation
				End Site
				{
					OFFSET 0.1237 -0.0542 0.0051
				}
			}
		}
	}
	JOINT LeftHip
	{
		OFFSET 0.0316 -0.0424 -0.0458
		CHANNELS 3 Zrotation Xrotation Yrotation
		JOINT LeftKnee
		{
			OFFSET 0.00 -0.2438 0.00
			CHANNELS 1 Zrotation
			JOINT LeftAnkle
			{
				OFFSET 0.00 -0.2449 0.00
				CHANNELS 3 Zrotation Xrotation Yrotation
				End Site
				{
					OFFSET 0.1237 -0.0542 -0.0051
				}
			}
		}
	}
}
MOTION
Frames: 31
Frame Time: 0.02
0.00037 -2e-05 0.00013 14.57604 -34.58423 -2.48973 56.02918 2.32382 2.82253 -3.60356 -6.47001 -0.13649 137.90209 -69.00769 -78.13702 12.45391 60.98719 5.08636 -8.57929 144.43244 73.80008 87.49604 10.99214 -60.65021 6.0047 9.88745 51.40367 -3.61465 -7.41534 -19.19721 -8.2209 -5.00114 -3.34832 54.69295 4.61686 -6.50364 -24.07931 -10.4681 5.77746 3.96047
0.00084 7e-05 9e-05 14.59371 -34.59289 -2.51775 56.13347 2.3019 2.8361 -3.72238 -6.50976 -0.13725 138.89021 -69.10084 -77.04125 12.51136 61.29487 5.08679 -8.58677 146.0431 73.37304 85.94641 10.90963 -61.62432 5.84735 9.92393 51.3528 -3.58236 -7.39727 -19.18717 -8.22445 -5.00497 -3.35472 54.65934 4.76212 -5.92735 -24.07364 -10.38413 5.73817 3.93387
0.00131 0.00016 4e-05 14.61146 -34.60141 -2.54571 56.23745 2.27996 2.84956 -3.84108 -6.54927 -0.13802 139.87635 -69.19389 -75.94768 12.56859 61.60177 5.08721 -8.59411 147.65011 72.94695 84.40053 10.8273 -62.59753 5.69012 9.96036 51.3019 -3.55016 -7.37914 -19.17716 -8.22802 -5.0088 -3.36113 54.62568 4.90697 -5.3526 -24.06799 -10.30037 5.699 3.90734
0.00178 0.00025 0 14.62909 -34.61002 -2.57365 56.34142 2.2581 2.86307 -3.95958 -6.58889 -0.13879 140.86162 -69.28678 -74.85508 12.62586 61.90854 5.08764 -8.60155 149.25604 72.52116 82.85548 10.74504 -63.56892 5.53321 9.99673 51.25115 -3.51797 -7.36111 -19.16715 -8.23157 -5.01262 -3.36751 54.59214 5.05179 -4.77806 -24.06235 -10.21665 5.65983 3.88082
0.00225 0.00034 -4e-05 14.6466 -34.6188 -2.60165 56.44569 2.23626 2.87671 -4.07811 -6.62878 -0.13955 141.84843 -69.3797 -73.76076 12.68334 62.21603 5.08808 -8.60917 150.86507 72.09458 81.30713 10.66261 -64.54058 5.37629 10.03312 51.20052 -3.48571 -7.34319 -19.15711 -8.2351 -5.01642 -3.3739 54.55872 5.19701 -4.202 -24.05668 -10.13272 5.62057 3.85423
0.00272 0.00042 -8e-05 14.66484 -34.62677 -2.62951 56.54909 2.21412 2.88978 -4.19716 -6.66747 -0.14032 142.83305 -69.47301 -72.66889 12.74006 62.52167 5.08847 -8.61593 152.4677 71.66954 79.76659 10.5805 -65.51705 5.2184 10.06962 51.14906 -3.4536 -7.32461 -19.14715 -8.23873 -5.02033 -3.38033 54.52457 5.3411 -3.63003 -24.05107 -10.04932 5.58157 3.8278
0.00319 0.00051 -0.00012 14.68159 -34.63636 -2.65764 56.6541 2.19264 2.90397 -4.31503 -6.70859 -0.14108 143.82111 -69.56542 -71.57317 12.79826 62.83069 5.08895 -8.6244 154.08154 71.24184 78.21191 10.49786 -66.48234 5.06272 10.10586 51.09929 -3.42123 -7.30735 -19.13705 -8.24217 -5.02402 -3.38667 54.49188 5.48727 -3.05059 -24.04536 -9.96496 5.5421 3.8011
0.00366 0.0006 -0.00017 14.69969 -34.64449 -2.6855 56.75764 2.17053 2.91718 -4.43399 -6.74737 -0.14185 144.80577 -69.65871 -70.48122 12.8551 63.13661 5.08937 -8.63131 155.68484 70.81667 76.67048 10.41567 -67.45875 4.90485 10.14237 51.04803 -3.38912 -7.28893 -19.12709 -8.24578 -5.02791 -3.39309 54.4579 5.63157 -2.47781 -24.03974 -9.88147 5.50305 3.77464
0.00412 0.00069 -0.00021 14.71959 -34.65069 -2.71311 56.85938 2.14767 2.92899 -4.55437 -6.78366 -0.14262 145.7878 -69.75295 -69.39235 12.91024 63.43883 5.08964 -8.63624 157.27698 70.39402 75.14358 10.33415 -68.44633 4.74478 10.1791 50.99462 -3.35723 -7.26887 -19.11722 -8.24961 -5.03207 -3.39964 54.42211 5.77348 -1.9138 -24.03423 -9.79908 5.46455 3.74849
0.00461 0.00078 -0.00025 14.72957 -34.66753 -2.74239 56.97148 2.12917 2.94822 -4.66683 -6.83537 -0.14337 146.78961 -69.84135 -68.28113 12.97504 63.76263 5.09052 -8.65233 158.9386 69.95514 73.52802 10.24911 -69.36241 4.59878 10.21424 50.95259 -3.32379 -7.25756 -19.10662 -8.25219 -5.03473 -3.40552 54.39602 5.92883 -1.30122 -24.02806 -9.71044 5.42297 3.72061
0.00506 0.00086 -0.0003 14.7602 -34.66223 -2.76799 57.06173 2.10147 2.9522 -4.79581 -6.85387 -0.14417 147.74653 -69.94227 -67.22024 13.01957 64.04064 5.09026 -8.64505 160.44999 69.55168 72.10295 10.17132 -70.43366 4.42223 10.25292 50.8872 -3.2938 -7.22822 -19.09767 -8.2574 -5.04053 -3.41276 54.34995 6.05599 -0.78997 -24.02331 -9.63497 5.38783 3.69634
0.00543 0.00091 -0.00037 14.85037 -34.59299 -2.78461 57.09109 2.04839 2.91064 -4.97237 -6.78595 -0.145 148.60446 -70.07628 -66.27331 13.00697 64.19404 5.08567 -8.57145 161.57506 69.23646 71.17816 10.11506 -71.8968 4.16871 10.29957 50.75156 -3.27182 -7.14537 -19.09254 -8.2701 -5.05539 -3.42409 54.24425 6.10387 -0.56889 -24.02234 -9.59608 5.37085 3.68239
0.00576 0.00093 -0.00045 14.96074 -34.50205 -2.79731 57.0986 1.98611 2.85445 -5.1651 -6.68382 -0.14588 149.41213 -70.22305 -65.38224 12.97425 64.30118 5.08015 -8.47472 162.54386 68.95856 70.44976 10.06579 -73.51944 3.88381 10.34982 50.59356 -3.2536 -7.04518 -19.0892 -8.28539 -5.07334 -3.4367 54.11932 6.12377 -0.44751 -24.02282 -9.57034 5.36021 3.67199
0.00611 0.00097 -0.00053 15.06001 -34.42322 -2.81108 57.11684 1.9281 2.80737 -5.34899 -6.59424 -0.1468 150.22797 -70.3649 -64.48029 12.95181 64.42888 5.07586 -8.39014 163.5681 68.66923 69.64491 10.01229 -75.09461 3.60806 10.39993 50.44986 -3.23461 -6.95553 -19.08552 -8.2993 -5.08962 -3.44851 54.00636 6.15782 -0.27231 -24.02272 -9.53828 5.34635 3.65971
0.00649 0.00101 -0.00062 15.16747 -34.33511 -2.82788 57.13203 1.86965 2.74986 -5.53924 -6.51718 -0.14749 151.10864 -70.50329 -63.51369 12.92474 64.55874 5.0682 -8.29893 164.66046 68.35611 68.78244 9.96326 -76.57531 3.35149 10.44491 50.28881 -3.21161 -6.85453 -19.07984 -8.31408 -5.10703 -3.46128 53.87988 6.18599 -0.13238 -24.02229 -9.5077 5.33398 3.64856
0.00678 0.00103 -0.00069 15.26259 -34.26085 -2.8374 57.14792 1.81001 2.71061 -5.72001 -6.40599 -0.14865 151.83857 -70.65162 -62.69942 12.90227 64.67276 5.06728 -8.2156 165.57054 68.10206 68.09151 9.90654 -78.27705 3.05045 10.49996 50.15839 -3.19793 -6.77318 -19.07874 -8.32764 -5.1228 -3.47232 53.77679 6.21949 0.05631 -24.02289 -9.47716 5.31997 3.63592
0.00683 0.00102 -0.00074 15.31933 -34.23306 -2.82796 57.1751 1.74854 2.7254 -5.87115 -6.2086 -0.15116 152.1953 -70.82701 -62.25563 12.89952 64.7581 5.08588 -8.16342 166.04332 67.99648 67.78434 9.82714 -80.66271 2.60978 10.59376 50.1202 -3.20846 -6.74932 -19.09017 -8.33742 -5.13356 -3.47846 53.74525 6.27684 0.4137 -24.02592 -9.44336 5.30009 3.61798
0.00677 0.001 -0.00077 15.36283 -34.21944 -2.81126 57.20299 1.68636 2.75905 -6.01197 -5.97819 -0.15412 152.3951 -71.0115 -61.97109 12.90147 64.82859 5.11125 -8.11907 166.33193 67.95028 67.6517 9.73962 -83.24226 2.13035 10.69497 50.11331 -3.22835 -6.74597 -19.10612 -8.34584 -5.1425 -3.48279 53.73758 6.34007 0.82182 -24.02996 -9.4092 5.27831 3.59845
0.00676 0.00098 -0.00082 15.41198 -34.19738 -2.79776 57.22794 1.62503 2.78406 -6.15735 -5.76302 -0.15682 152.64817 -71.18999 -61.63616 12.90018 64.9032 5.13295 -8.06901 166.68795 67.88024 67.46533 9.65578 -85.66173 1.68435 10.78548 50.09059 -3.24433 -6.73396 -19.11978 -8.35472 -5.15209 -3.48784 53.71743 6.39912 1.20044 -24.03359 -9.37526 5.25723 3.57982
0.00677 0.00096 -0.00086 15.46337 -34.18285 -2.78462 57.26321 1.5611 2.80894 -6.30437 -5.54535 -0.15973 152.98077 -71.37662 -61.20592 12.90381 64.98653 5.15677 -8.02814 167.11134 67.7974 67.17393 9.57261 -88.39883 1.16916 10.90863 50.0735 -3.25895 -6.71876 -19.13444 -8.36436 -5.16255 -3.49339 53.70321 6.46359 1.60284 -24.03707 -9.34141 5.23701 3.56056
0.00671 0.00093 -0.0009 15.50668 -34.15647 -2.76898 57.27738 1.50257 2.83865 -6.44465 -5.3259 -0.16233 153.10472 -71.54853 -61.01685 12.89736 65.04974 5.17825 -7.96913 167.3476 67.75586 67.14501 9.48553 -90.50799 0.79095 10.96355 50.05286 -3.27862 -6.71503 -19.14816 -8.37207 -5.17072 -3.49745 53.68294 6.51847 1.96901 -24.04109 -9.30725 5.21453 3.5422
0.00649 0.00087 -0.00095 15.53087 -34.09228 -2.74893 57.23349 1.45902 2.8782 -6.57391 -5.10628 -0.16394 152.73999 -71.67505 -61.40969 12.87217 65.05619 5.18712 -7.86883 167.15188 67.80528 67.75654 9.39367 -90.92621 0.78506 10.84518 50.01115 -3.30978 -6.74075 -19.15731 -8.3747 -5.17305 -3.49787 53.63697 6.54613 2.22329 -24.04617 -9.27127 5.18577 3.52662
0.0062 0.00079 -0.00099 15.54725 -34.01599 -2.72651 57.16826 1.421 2.92185 -6.69544 -4.88682 -0.16523 152.15806 -71.78658 -62.04957 12.83466 65.04631 5.19387 -7.7485 166.76454 67.89574 68.633 9.2972 -90.69058 0.92038 10.6549 49.96554 -3.34574 -6.77703 -19.16552 -8.37543 -5.17311 -3.49685 53.58473 6.5639 2.43951 -24.05179 -9.23515 5.1549 3.51202
0.00594 0.00072 -0.00104 15.56722 -33.94648 -2.70474 57.1128 1.38057 2.96294 -6.81745 -4.66963 -0.16667 151.64835 -71.90689 -62.60345 12.79651 65.04442 5.205 -7.62996 166.44351 67.97267 69.41447 9.2004 -90.69104 1.00255 10.4862 49.92428 -3.37959 -6.80651 -19.17468 -8.37712 -5.17418 -3.49649 53.5376 6.58591 2.67363 -24.05726 -9.1997 5.12529 3.49703
0.0057 0.00065 -0.00109 15.58681 -33.87235 -2.68454 57.05752 1.33965 3.00753 -6.95304 -4.44132 -0.16809 151.26021 -72.02029 -63.04505 12.78581 65.03024 5.20345 -7.541 166.21601 68.02958 70.09486 9.11426 -90.94594 1.0409 10.36387 49.8734 -3.4134 -6.84445 -19.18175 -8.37848 -5.17532 -3.49606 53.48197 6.60936 2.90796 -24.06233 -9.16157 5.09425 3.4817
0.00539 0.00057 -0.00113 15.60521 -33.80443 -2.66056 56.99622 1.30111 3.04569 -7.05722 -4.23671 -0.16947 150.55023 -72.14308 -63.78583 12.71373 65.0497 5.22584 -7.38752 165.7351 68.13779 71.04645 9.00402 -90.52585 1.19946 10.12872 49.84102 -3.44842 -6.86787 -19.19296 -8.37996 -5.17573 -3.49542 53.44195 6.62719 3.13085 -24.06839 -9.12911 5.06583 3.4674
0.00489 0.00045 -0.00112 15.62445 -33.75966 -2.62716 56.92813 1.26774 3.06406 -7.08743 -4.09717 -0.17078 149.16755 -72.30427 -65.21179 12.48534 65.06406 5.33065 -7.04541 164.73011 68.36907 72.67591 8.83638 -88.28905 1.69926 9.59245 49.86225 -3.4846 -6.84065 -19.21508 -8.38314 -5.17535 -3.49495 53.44893 6.63371 3.34255 -24.07662 -9.11132 5.0442 3.45499
0.00431 0.00032 -0.0011 15.64231 -33.7209 -2.59007 56.85374 1.23667 3.07609 -7.08349 -3.98166 -0.17205 147.43825 -72.47209 -66.94084 12.19359 65.13075 5.45642 -6.64274 163.45034 68.64995 74.5659 8.6434 -85.41484 2.30699 8.94706 49.90177 -3.5219 -6.79952 -19.24151 -8.38633 -5.17417 -3.49421 53.47125 6.63469 3.54176 -24.08589 -9.09935 5.02542 3.44369
0.00377 0.00019 -0.00108 15.65951 -33.67734 -2.55434 56.77933 1.20452 3.0914 -7.08912 -3.85563 -0.17334 145.76237 -72.63311 -68.58779 11.92425 65.24195 5.56247 -6.27675 162.21697 68.9158 76.34424 8.45647 -82.90639 2.837 8.3555 49.93173 -3.55943 -6.77027 -19.26644 -8.38899 -5.17299 -3.49337 53.48491 6.63685 3.73917 -24.09499 -9.08547 5.00603 3.43239
0.00324 8e-05 -0.00108 15.68225 -33.6422 -2.51957 56.71676 1.17245 3.10449 -7.12294 -3.72814 -0.17464 144.52074 -72.81629 -70.02369 11.68177 65.06921 5.71238 -5.86793 161.32148 69.15914 78.1179 8.29147 -80.05708 3.49376 7.74095 49.96689 -3.59437 -6.71921 -19.28939 -8.39393 -5.17344 -3.49353 53.5056 6.64377 3.96681 -24.10289 -9.06876 4.98387 3.41912
0.00267 -7e-05 -0.00104 15.69276 -33.59099 -2.48232 56.62781 1.14104 3.1215 -7.08583 -3.60908 -0.1759 142.29215 -72.94668 -71.94891 11.36803 65.49429 5.77482 -5.53856 159.64275 69.45088 79.94155 8.07609 -77.77105 3.90931 7.15258 49.99557 -3.63448 -6.70852 -19.31752 -8.39397 -5.17011 -3.49142 53.51525 6.6403 4.12907 -24.11346 -9.05896 4.96793 3.41002
